<svg width="304" height="73" viewBox="0 0 304 73" fill="none" xmlns="http://www.w3.org/2000/svg">
<rect width="304" height="73" fill="#3385FF"/>
<path d="M26.264 23.4H38.12C41.928 23.4 44.776 24.184 46.664 25.752C48.552 27.288 49.496 29.624 49.496 32.76C49.496 34.968 49.032 36.856 48.104 38.424C47.176 39.992 45.832 41.128 44.072 41.832V41.928C44.68 42.376 45.144 42.808 45.464 43.224C45.816 43.608 46.104 44.056 46.328 44.568L51.272 57H43.928L40.088 46.776C39.704 45.752 39.208 45.08 38.6 44.76C37.992 44.408 36.936 44.232 35.432 44.232H33.176V57H26.264V23.4ZM37.4 38.76C39.16 38.76 40.488 38.328 41.384 37.464C42.312 36.568 42.776 35.272 42.776 33.576C42.776 30.472 40.952 28.92 37.304 28.92H33.176V38.76H37.4ZM54.8578 23.4H65.7538C69.6258 23.4 72.5698 24.12 74.5858 25.56C76.6018 26.968 77.6098 29.048 77.6098 31.8C77.6098 33.4 77.2418 34.776 76.5058 35.928C75.7698 37.08 74.6178 38.056 73.0498 38.856V39C75.0978 39.768 76.5698 40.792 77.4658 42.072C78.3938 43.352 78.8578 45.032 78.8578 47.112C78.8578 50.312 77.9138 52.76 76.0258 54.456C74.1698 56.152 71.4498 57 67.8658 57H54.8578V23.4ZM66.3778 36.792C67.7218 36.792 68.7618 36.424 69.4978 35.688C70.2658 34.92 70.6498 33.864 70.6498 32.52C70.6498 31.208 70.2178 30.248 69.3538 29.64C68.5218 29.032 67.2258 28.728 65.4658 28.728H61.7698V36.792H66.3778ZM67.3378 51.672C68.8418 51.672 69.9938 51.24 70.7938 50.376C71.6258 49.512 72.0418 48.28 72.0418 46.68C72.0418 44.984 71.5458 43.752 70.5538 42.984C69.5618 42.216 67.9618 41.832 65.7538 41.832H61.7698V51.672H67.3378ZM96.5911 57.48C92.3031 57.48 89.0551 56.328 86.8471 54.024C84.6711 51.72 83.5831 48.344 83.5831 43.896V23.4H90.4951V43.8C90.4951 49.24 92.5271 51.96 96.5911 51.96C100.687 51.96 102.735 49.24 102.735 43.8V23.4H109.647V43.896C109.647 48.344 108.543 51.72 106.335 54.024C104.127 56.328 100.879 57.48 96.5911 57.48ZM153.976 23.4V57H147.592L133.816 34.92V57H126.952V23.4H133.624L147.112 45.144V23.4H153.976ZM173.81 57.48C170.706 57.48 168.018 56.792 165.746 55.416C163.474 54.04 161.73 52.056 160.514 49.464C159.33 46.872 158.738 43.784 158.738 40.2C158.738 36.616 159.33 33.528 160.514 30.936C161.73 28.344 163.474 26.36 165.746 24.984C168.018 23.608 170.706 22.92 173.81 22.92C176.946 22.92 179.634 23.608 181.874 24.984C184.146 26.36 185.874 28.344 187.058 30.936C188.274 33.528 188.882 36.616 188.882 40.2C188.882 43.784 188.274 46.872 187.058 49.464C185.874 52.056 184.146 54.04 181.874 55.416C179.634 56.792 176.946 57.48 173.81 57.48ZM173.81 52.008C176.37 52.008 178.37 50.968 179.81 48.888C181.282 46.776 182.018 43.88 182.018 40.2C182.018 36.52 181.282 33.64 179.81 31.56C178.37 29.448 176.37 28.392 173.81 28.392C171.282 28.392 169.282 29.448 167.81 31.56C166.37 33.64 165.65 36.52 165.65 40.2C165.65 43.88 166.37 46.776 167.81 48.888C169.282 50.968 171.282 52.008 173.81 52.008ZM201.095 28.488H191.111V23.4H217.991V28.488H208.007V57H201.095V28.488ZM221.967 23.4H244.287V28.92H228.879V36.6H242.607V42.12H228.879V51.48H244.287V57H221.967V23.4ZM259.277 57.48C256.749 57.48 254.461 56.968 252.413 55.944C250.397 54.92 248.749 53.448 247.469 51.528L251.453 47.688C252.509 48.936 253.789 49.96 255.293 50.76C256.797 51.56 258.205 51.96 259.517 51.96C260.989 51.96 262.173 51.624 263.069 50.952C263.965 50.28 264.413 49.4 264.413 48.312C264.413 47.512 264.269 46.856 263.981 46.344C263.693 45.832 263.149 45.32 262.349 44.808C261.549 44.264 260.237 43.544 258.413 42.648C256.013 41.464 254.125 40.36 252.749 39.336C251.373 38.312 250.349 37.208 249.677 36.024C249.037 34.808 248.717 33.4 248.717 31.8C248.717 30.04 249.181 28.488 250.109 27.144C251.037 25.8 252.349 24.76 254.045 24.024C255.741 23.288 257.693 22.92 259.901 22.92C262.333 22.92 264.477 23.384 266.333 24.312C268.221 25.24 269.597 26.52 270.461 28.152L266.093 31.416C264.493 29.432 262.525 28.44 260.189 28.44C258.717 28.44 257.581 28.728 256.781 29.304C255.981 29.88 255.581 30.696 255.581 31.752C255.581 32.392 255.773 32.968 256.157 33.48C256.573 33.992 257.309 34.552 258.365 35.16C259.421 35.768 261.005 36.568 263.117 37.56C265.165 38.52 266.765 39.48 267.917 40.44C269.101 41.4 269.949 42.472 270.461 43.656C270.973 44.84 271.229 46.248 271.229 47.88C271.229 49.8 270.733 51.496 269.741 52.968C268.781 54.408 267.389 55.528 265.565 56.328C263.773 57.096 261.677 57.48 259.277 57.48Z" fill="white"/>
</svg>
